<svg width="1200" height="760" viewBox="0 0 1200 760" fill="none" xmlns="http://www.w3.org/2000/svg">
  <rect width="1200" height="760" rx="32" fill="#0D1319"/>
  <!-- Main card -->
  <rect x="56" y="60" width="1088" height="640" rx="24" fill="#131A22"/>

  <!-- Sidebar (clipped to card rounded corners) -->
  <defs>
    <clipPath id="card">
      <rect x="56" y="60" width="1088" height="640" rx="24"/>
    </clipPath>
  </defs>
  <rect x="56" y="60" width="198" height="640" fill="#0D1420" clip-path="url(#card)"/>

  <!-- Sidebar logo mark -->
  <rect x="80" y="96" width="38" height="38" rx="11" fill="#9AFF2D" fill-opacity="0.75"/>
  <rect x="128" y="106" width="96" height="18" rx="6" fill="#D7E0EA" fill-opacity="0.22"/>

  <!-- Active nav item -->
  <rect x="80" y="162" width="150" height="34" rx="10" fill="#9AFF2D" fill-opacity="0.14"/>
  <rect x="100" y="173" width="80" height="13" rx="5" fill="#9AFF2D" fill-opacity="0.6"/>

  <!-- Other nav items -->
  <rect x="80" y="206" width="150" height="32" rx="10" fill="#D7E0EA" fill-opacity="0.04"/>
  <rect x="100" y="217" width="68" height="12" rx="4" fill="#D7E0EA" fill-opacity="0.18"/>
  <rect x="80" y="246" width="150" height="32" rx="10" fill="#D7E0EA" fill-opacity="0.04"/>
  <rect x="100" y="257" width="58" height="12" rx="4" fill="#D7E0EA" fill-opacity="0.18"/>
  <rect x="80" y="286" width="150" height="32" rx="10" fill="#D7E0EA" fill-opacity="0.04"/>
  <rect x="100" y="297" width="84" height="12" rx="4" fill="#D7E0EA" fill-opacity="0.18"/>

  <!-- Sidebar section label + sub-items -->
  <rect x="80" y="352" width="92" height="11" rx="4" fill="#9AFF2D" fill-opacity="0.4"/>
  <rect x="80" y="376" width="150" height="28" rx="8" fill="#D7E0EA" fill-opacity="0.06"/>
  <rect x="80" y="412" width="150" height="28" rx="8" fill="#D7E0EA" fill-opacity="0.06"/>
  <rect x="80" y="448" width="150" height="28" rx="8" fill="#D7E0EA" fill-opacity="0.06"/>

  <!-- Main content header -->
  <rect x="288" y="96" width="262" height="36" rx="12" fill="#D7E0EA" fill-opacity="0.18"/>
  <rect x="288" y="150" width="544" height="17" rx="7" fill="#D7E0EA" fill-opacity="0.11"/>

  <!-- Stat cards row -->
  <rect x="288" y="194" width="214" height="130" rx="16" fill="#0F151B"/>
  <rect x="288" y="194" width="214" height="4" rx="2" fill="#9AFF2D" fill-opacity="0.85"/>
  <rect x="308" y="218" width="68" height="12" rx="4" fill="#D7E0EA" fill-opacity="0.17"/>
  <rect x="308" y="240" width="114" height="34" rx="8" fill="#9AFF2D" fill-opacity="0.18"/>
  <rect x="308" y="290" width="136" height="12" rx="4" fill="#D7E0EA" fill-opacity="0.1"/>

  <rect x="518" y="194" width="214" height="130" rx="16" fill="#0F151B"/>
  <rect x="518" y="194" width="214" height="4" rx="2" fill="#9AFF2D" fill-opacity="0.45"/>
  <rect x="538" y="218" width="68" height="12" rx="4" fill="#D7E0EA" fill-opacity="0.17"/>
  <rect x="538" y="240" width="114" height="34" rx="8" fill="#D7E0EA" fill-opacity="0.13"/>
  <rect x="538" y="290" width="136" height="12" rx="4" fill="#D7E0EA" fill-opacity="0.1"/>

  <rect x="748" y="194" width="384" height="130" rx="16" fill="#0F151B"/>
  <rect x="748" y="194" width="384" height="4" rx="2" fill="#9AFF2D" fill-opacity="0.22"/>
  <rect x="768" y="218" width="68" height="12" rx="4" fill="#D7E0EA" fill-opacity="0.17"/>
  <rect x="768" y="240" width="114" height="34" rx="8" fill="#D7E0EA" fill-opacity="0.13"/>
  <rect x="768" y="290" width="200" height="12" rx="4" fill="#D7E0EA" fill-opacity="0.1"/>

  <!-- Data table -->
  <rect x="288" y="348" width="844" height="320" rx="18" fill="#0F151B"/>
  <rect x="308" y="368" width="804" height="30" rx="8" fill="#D7E0EA" fill-opacity="0.07"/>
  <rect x="308" y="408" width="804" height="25" rx="6" fill="#D7E0EA" fill-opacity="0.04"/>
  <rect x="308" y="441" width="804" height="25" rx="6" fill="#9AFF2D" fill-opacity="0.06"/>
  <rect x="308" y="474" width="804" height="25" rx="6" fill="#D7E0EA" fill-opacity="0.04"/>
  <rect x="308" y="507" width="804" height="25" rx="6" fill="#D7E0EA" fill-opacity="0.04"/>
  <rect x="308" y="540" width="804" height="25" rx="6" fill="#D7E0EA" fill-opacity="0.04"/>
  <rect x="308" y="573" width="804" height="25" rx="6" fill="#D7E0EA" fill-opacity="0.04"/>
  <rect x="308" y="606" width="804" height="25" rx="6" fill="#D7E0EA" fill-opacity="0.04"/>
  <rect x="308" y="639" width="804" height="18" rx="6" fill="#D7E0EA" fill-opacity="0.03"/>
</svg>
