<svg width="1200" height="760" viewBox="0 0 1200 760" fill="none" xmlns="http://www.w3.org/2000/svg">
  <rect width="1200" height="760" rx="32" fill="#0C1117"/>
  <!-- Main card -->
  <rect x="56" y="60" width="1088" height="640" rx="24" fill="#121920"/>

  <!-- Minimal top nav -->
  <rect x="96" y="92" width="104" height="24" rx="7" fill="#D7E0EA" fill-opacity="0.24"/>
  <rect x="848" y="94" width="74" height="19" rx="6" fill="#D7E0EA" fill-opacity="0.12"/>
  <rect x="938" y="94" width="74" height="19" rx="6" fill="#D7E0EA" fill-opacity="0.12"/>
  <rect x="1028" y="94" width="74" height="19" rx="6" fill="#D7E0EA" fill-opacity="0.12"/>

  <!-- Thin nav divider -->
  <rect x="96" y="126" width="1008" height="1" rx="1" fill="#D7E0EA" fill-opacity="0.07"/>

  <!-- Hero text block -->
  <rect x="96" y="152" width="346" height="40" rx="12" fill="#D7E0EA" fill-opacity="0.18"/>
  <rect x="96" y="206" width="222" height="17" rx="7" fill="#D7E0EA" fill-opacity="0.1"/>

  <!-- Photo grid — row 1 (3 columns) -->
  <rect x="96" y="246" width="328" height="210" rx="14" fill="#0C1420"/>
  <rect x="440" y="246" width="328" height="210" rx="14" fill="#0C1420"/>
  <rect x="784" y="246" width="320" height="210" rx="14" fill="#0C1420"/>

  <!-- Subtle gradient-like overlays on photo slots -->
  <rect x="96" y="246" width="328" height="210" rx="14" fill="#9AFF2D" fill-opacity="0.025"/>
  <rect x="440" y="246" width="328" height="210" rx="14" fill="#D7E0EA" fill-opacity="0.015"/>
  <rect x="784" y="246" width="320" height="210" rx="14" fill="#D7E0EA" fill-opacity="0.015"/>

  <!-- Photo grid — row 2 (asymmetric: narrow, wide, medium) -->
  <rect x="96" y="470" width="208" height="194" rx="14" fill="#0C1420"/>
  <rect x="318" y="470" width="450" height="194" rx="14" fill="#0C1420"/>
  <rect x="782" y="470" width="322" height="194" rx="14" fill="#0C1420"/>

  <!-- Caption line under first row -->
  <rect x="96" y="672" width="178" height="13" rx="5" fill="#D7E0EA" fill-opacity="0.1"/>
</svg>
